<mxfile host="app.diagrams.net" modified="2024-01-16T12:06:59.572Z" agent="Mozilla/5.0 (Windows NT 10.0; Win64; x64) AppleWebKit/537.36 (KHTML, like Gecko) Chrome/119.0.0.0 Safari/537.36" etag="lJC0LwTOm_Z1NFqOaR7w" version="22.1.17" type="github">
  <diagram name="第 1 页" id="DiqK2zHsX7JkeJQSn5oS">
    <mxGraphModel dx="1050" dy="557" grid="1" gridSize="10" guides="1" tooltips="1" connect="1" arrows="1" fold="1" page="1" pageScale="1" pageWidth="827" pageHeight="1169" math="0" shadow="0">
      <root>
        <mxCell id="0" />
        <mxCell id="1" parent="0" />
        <mxCell id="WDba8IOxzHIzkoOOqADl-1" value="肝" style="ellipse;whiteSpace=wrap;html=1;fontSize=14;" vertex="1" parent="1">
          <mxGeometry x="117" y="184" width="80" height="50" as="geometry" />
        </mxCell>
        <mxCell id="WDba8IOxzHIzkoOOqADl-4" value="在体合筋、其华在爪" style="text;html=1;align=center;verticalAlign=middle;whiteSpace=wrap;rounded=0;strokeColor=default;fontSize=14;" vertex="1" parent="1">
          <mxGeometry x="341" y="59" width="136" height="40" as="geometry" />
        </mxCell>
        <mxCell id="WDba8IOxzHIzkoOOqADl-5" value="开窍于目" style="text;html=1;align=center;verticalAlign=middle;whiteSpace=wrap;rounded=0;strokeColor=default;fontSize=14;" vertex="1" parent="1">
          <mxGeometry x="341" y="129" width="136" height="40" as="geometry" />
        </mxCell>
        <mxCell id="WDba8IOxzHIzkoOOqADl-9" value="在志为努" style="text;html=1;align=center;verticalAlign=middle;whiteSpace=wrap;rounded=0;strokeColor=default;fontSize=14;" vertex="1" parent="1">
          <mxGeometry x="341" y="189" width="136" height="40" as="geometry" />
        </mxCell>
        <mxCell id="WDba8IOxzHIzkoOOqADl-10" value="在液为泪" style="text;html=1;align=center;verticalAlign=middle;whiteSpace=wrap;rounded=0;strokeColor=default;fontSize=14;" vertex="1" parent="1">
          <mxGeometry x="341" y="249" width="136" height="40" as="geometry" />
        </mxCell>
        <mxCell id="WDba8IOxzHIzkoOOqADl-11" value="与春气相通应" style="text;html=1;align=center;verticalAlign=middle;whiteSpace=wrap;rounded=0;strokeColor=default;fontSize=14;" vertex="1" parent="1">
          <mxGeometry x="341" y="309" width="136" height="40" as="geometry" />
        </mxCell>
        <mxCell id="WDba8IOxzHIzkoOOqADl-12" value="" style="endArrow=classic;html=1;rounded=0;entryX=0;entryY=0.5;entryDx=0;entryDy=0;exitX=1;exitY=0.5;exitDx=0;exitDy=0;" edge="1" parent="1" source="WDba8IOxzHIzkoOOqADl-1" target="WDba8IOxzHIzkoOOqADl-4">
          <mxGeometry width="50" height="50" relative="1" as="geometry">
            <mxPoint x="197" y="199" as="sourcePoint" />
            <mxPoint x="247" y="149" as="targetPoint" />
          </mxGeometry>
        </mxCell>
        <mxCell id="WDba8IOxzHIzkoOOqADl-13" value="" style="endArrow=classic;html=1;rounded=0;entryX=0;entryY=0.5;entryDx=0;entryDy=0;exitX=1;exitY=0.5;exitDx=0;exitDy=0;" edge="1" parent="1" source="WDba8IOxzHIzkoOOqADl-1" target="WDba8IOxzHIzkoOOqADl-5">
          <mxGeometry width="50" height="50" relative="1" as="geometry">
            <mxPoint x="207" y="204" as="sourcePoint" />
            <mxPoint x="351" y="89" as="targetPoint" />
          </mxGeometry>
        </mxCell>
        <mxCell id="WDba8IOxzHIzkoOOqADl-14" value="" style="endArrow=classic;html=1;rounded=0;entryX=0;entryY=0.5;entryDx=0;entryDy=0;exitX=1;exitY=0.5;exitDx=0;exitDy=0;" edge="1" parent="1" source="WDba8IOxzHIzkoOOqADl-1" target="WDba8IOxzHIzkoOOqADl-9">
          <mxGeometry width="50" height="50" relative="1" as="geometry">
            <mxPoint x="217" y="214" as="sourcePoint" />
            <mxPoint x="361" y="99" as="targetPoint" />
          </mxGeometry>
        </mxCell>
        <mxCell id="WDba8IOxzHIzkoOOqADl-15" value="" style="endArrow=classic;html=1;rounded=0;entryX=0;entryY=0.5;entryDx=0;entryDy=0;exitX=1;exitY=0.5;exitDx=0;exitDy=0;" edge="1" parent="1" source="WDba8IOxzHIzkoOOqADl-1" target="WDba8IOxzHIzkoOOqADl-10">
          <mxGeometry width="50" height="50" relative="1" as="geometry">
            <mxPoint x="227" y="224" as="sourcePoint" />
            <mxPoint x="371" y="109" as="targetPoint" />
          </mxGeometry>
        </mxCell>
        <mxCell id="WDba8IOxzHIzkoOOqADl-16" value="" style="endArrow=classic;html=1;rounded=0;entryX=0;entryY=0.5;entryDx=0;entryDy=0;exitX=1;exitY=0.5;exitDx=0;exitDy=0;" edge="1" parent="1" source="WDba8IOxzHIzkoOOqADl-1" target="WDba8IOxzHIzkoOOqADl-11">
          <mxGeometry width="50" height="50" relative="1" as="geometry">
            <mxPoint x="237" y="234" as="sourcePoint" />
            <mxPoint x="381" y="119" as="targetPoint" />
          </mxGeometry>
        </mxCell>
        <mxCell id="WDba8IOxzHIzkoOOqADl-53" value="肝容易出现的证型" style="swimlane;fontStyle=0;childLayout=stackLayout;horizontal=1;startSize=30;horizontalStack=0;resizeParent=1;resizeParentMax=0;resizeLast=0;collapsible=1;marginBottom=0;whiteSpace=wrap;html=1;fontSize=14;" vertex="1" parent="1">
          <mxGeometry x="540" y="59" width="140" height="240" as="geometry" />
        </mxCell>
        <mxCell id="WDba8IOxzHIzkoOOqADl-54" value="肝气郁结" style="text;strokeColor=none;fillColor=none;align=left;verticalAlign=middle;spacingLeft=4;spacingRight=4;overflow=hidden;points=[[0,0.5],[1,0.5]];portConstraint=eastwest;rotatable=0;whiteSpace=wrap;html=1;fontSize=14;" vertex="1" parent="WDba8IOxzHIzkoOOqADl-53">
          <mxGeometry y="30" width="140" height="30" as="geometry" />
        </mxCell>
        <mxCell id="WDba8IOxzHIzkoOOqADl-55" value="肝火上炎" style="text;strokeColor=none;fillColor=none;align=left;verticalAlign=middle;spacingLeft=4;spacingRight=4;overflow=hidden;points=[[0,0.5],[1,0.5]];portConstraint=eastwest;rotatable=0;whiteSpace=wrap;html=1;fontSize=14;" vertex="1" parent="WDba8IOxzHIzkoOOqADl-53">
          <mxGeometry y="60" width="140" height="30" as="geometry" />
        </mxCell>
        <mxCell id="WDba8IOxzHIzkoOOqADl-58" value="肝血虚" style="text;strokeColor=none;fillColor=none;align=left;verticalAlign=middle;spacingLeft=4;spacingRight=4;overflow=hidden;points=[[0,0.5],[1,0.5]];portConstraint=eastwest;rotatable=0;whiteSpace=wrap;html=1;fontSize=14;" vertex="1" parent="WDba8IOxzHIzkoOOqADl-53">
          <mxGeometry y="90" width="140" height="30" as="geometry" />
        </mxCell>
        <mxCell id="WDba8IOxzHIzkoOOqADl-57" value="肝阴虚" style="text;strokeColor=none;fillColor=none;align=left;verticalAlign=middle;spacingLeft=4;spacingRight=4;overflow=hidden;points=[[0,0.5],[1,0.5]];portConstraint=eastwest;rotatable=0;whiteSpace=wrap;html=1;fontSize=14;" vertex="1" parent="WDba8IOxzHIzkoOOqADl-53">
          <mxGeometry y="120" width="140" height="30" as="geometry" />
        </mxCell>
        <mxCell id="WDba8IOxzHIzkoOOqADl-64" value="肝阳上亢" style="text;strokeColor=none;fillColor=none;align=left;verticalAlign=middle;spacingLeft=4;spacingRight=4;overflow=hidden;points=[[0,0.5],[1,0.5]];portConstraint=eastwest;rotatable=0;whiteSpace=wrap;html=1;fontSize=14;" vertex="1" parent="WDba8IOxzHIzkoOOqADl-53">
          <mxGeometry y="150" width="140" height="30" as="geometry" />
        </mxCell>
        <mxCell id="WDba8IOxzHIzkoOOqADl-65" value="肝风内动" style="text;strokeColor=none;fillColor=none;align=left;verticalAlign=middle;spacingLeft=4;spacingRight=4;overflow=hidden;points=[[0,0.5],[1,0.5]];portConstraint=eastwest;rotatable=0;whiteSpace=wrap;html=1;fontSize=14;" vertex="1" parent="WDba8IOxzHIzkoOOqADl-53">
          <mxGeometry y="180" width="140" height="30" as="geometry" />
        </mxCell>
        <mxCell id="WDba8IOxzHIzkoOOqADl-56" value="寒疑肝脉" style="text;strokeColor=none;fillColor=none;align=left;verticalAlign=middle;spacingLeft=4;spacingRight=4;overflow=hidden;points=[[0,0.5],[1,0.5]];portConstraint=eastwest;rotatable=0;whiteSpace=wrap;html=1;fontSize=14;" vertex="1" parent="WDba8IOxzHIzkoOOqADl-53">
          <mxGeometry y="210" width="140" height="30" as="geometry" />
        </mxCell>
        <mxCell id="WDba8IOxzHIzkoOOqADl-63" value="" style="verticalLabelPosition=bottom;verticalAlign=top;html=1;shape=mxgraph.basic.x;fillColor=#e51400;strokeColor=#B20000;fontColor=#ffffff;" vertex="1" parent="1">
          <mxGeometry x="530" y="59" width="10" height="10" as="geometry" />
        </mxCell>
      </root>
    </mxGraphModel>
  </diagram>
</mxfile>
